<svg xmlns="http://www.w3.org/2000/svg" viewBox="0 0 20 14.07"><defs><style>.cls-1{fill:#fff;}</style></defs><title>manette</title><g id="Calque_2" data-name="Calque 2"><g id="Layer_1" data-name="Layer 1"><path d="M.59,7s-.89,5.58.41,6,4.22-.58,4.22-.58l4.45-2.15L13,11.41l3.81,2,1.93-.15.63-5L18.48,4,17.15,1.63,14.44.3,12.81,1,11,1.3H8.63L6.26.59,5.26.3,4.07.81,3,1.56Z"/><path class="cls-1" d="M6,5H7.5a.5.5,0,0,1,0,1H6V7.5a.5.5,0,0,1-1,0V6H3.5a.5.5,0,0,1,0-1H5V3.5a.5.5,0,0,1,1,0V5Zm5.5-2h1a.5.5,0,0,1,.5.5v1a.5.5,0,0,1-.5.5h-1a.5.5,0,0,1-.5-.5v-1A.5.5,0,0,1,11.5,3Zm3,0h1a.5.5,0,0,1,.5.5v1a.5.5,0,0,1-.5.5h-1a.5.5,0,0,1-.5-.5v-1A.5.5,0,0,1,14.5,3Zm-2,3h1a.5.5,0,0,1,.5.5v1a.5.5,0,0,1-.5.5h-1a.5.5,0,0,1-.5-.5v-1A.5.5,0,0,1,12.5,6Zm3,0h1a.5.5,0,0,1,.5.5v1a.5.5,0,0,1-.5.5h-1a.5.5,0,0,1-.5-.5v-1A.5.5,0,0,1,15.5,6ZM10,2a7,7,0,0,1-3-.54l-.52-.24A2,2,0,0,0,5.5,1C3.49,1,1,4.37,1,9.5,1,12,1.41,13,2.08,13.05s1-.13,3.39-1.46a13.49,13.49,0,0,1,3.17-1.41,5.23,5.23,0,0,1,2.72,0,13.49,13.49,0,0,1,3.17,1.41c2.36,1.33,2.79,1.53,3.39,1.46S19,12,19,9.5C19,4.37,16.51,1,14.5,1a2,2,0,0,0-1,.22L13,1.46A7,7,0,0,1,10,2Zm0-1A5.93,5.93,0,0,0,12.61.54L13.13.3A3.08,3.08,0,0,1,14.5,0C17.14,0,20,3.87,20,9.5c0,2.94-.59,4.38-2,4.54-.93.11-1.31-.06-4-1.58a12.44,12.44,0,0,0-2.93-1.31,4.18,4.18,0,0,0-2.22,0A12.44,12.44,0,0,0,6,12.46C3.27,14,2.89,14.15,2,14,.6,13.88,0,12.44,0,9.5,0,3.87,2.86,0,5.5,0A3.08,3.08,0,0,1,6.87.3l.52.24A5.93,5.93,0,0,0,10,1Z"/></g></g></svg>