<?xml version="1.0" encoding="utf-8"?>
<!-- Generator: Adobe Illustrator 17.0.0, SVG Export Plug-In . SVG Version: 6.00 Build 0)  -->
<!DOCTYPE svg PUBLIC "-//W3C//DTD SVG 1.1//EN" "http://www.w3.org/Graphics/SVG/1.1/DTD/svg11.dtd">
<svg version="1.1" id="Layer_1" xmlns="http://www.w3.org/2000/svg" xmlns:xlink="http://www.w3.org/1999/xlink" x="0px" y="0px"
	 width="1920px" height="1080px" viewBox="0 0 1920 1080" enable-background="new 0 0 1920 1080" xml:space="preserve">
<g style="fill:red">
	<path d="M912.219,524.03c0.42,6.898,4.025,11.069,10.81,12.375c4.075,0.784,8.088,0.207,11.995-1.018
		c7.027-2.202,12.411-6.38,15.248-13.35c1.718-4.22,0.646-8.096-2.778-11.105c-1.999-1.757-4.285-3.006-6.848-3.608
		c-8.901-2.091-17.107-0.069-24.844,4.432c-0.976,0.568-1.627,1.501-2.129,2.514c-1.186,2.393-1.562,4.948-1.462,7.587
		C912.213,522.581,912.175,523.308,912.219,524.03z"/>
	<path d="M996.616,536.482c5.21-0.485,9.167-3.208,10.747-8.538c0.704-2.373,0.907-4.828,0.792-7.057
		c-0.072-0.826-0.103-1.405-0.175-1.98c-0.479-3.816-2.01-6.834-5.78-8.51c-3.19-1.418-6.411-2.657-9.84-3.301
		c-5.366-1.007-10.693-1.046-15.736,1.36c-3.857,1.84-6.958,4.479-7.339,9.119c-0.257,3.124,0.953,5.901,2.758,8.354
		C978.154,534.233,986.616,537.412,996.616,536.482z"/>
	<path d="M0,0v1080h1920V0H0z M905.959,500.176c-2.214-6.632-3.456-13.469-3.554-20.463c-0.192-13.689,5.823-24.339,16.719-32.167
		c8.661-6.221,18.611-9.641,29.033-11.674c3.944-0.769,7.935-1.138,11.972-1.168c15.065,0.457,29.051,4.552,41.468,13.156
		c8.516,5.901,13.795,14.233,15.774,24.454c1.039,5.367,0.532,10.788-0.254,16.162c-0.616,4.209-1.645,8.322-2.988,12.361
		c-0.698,2.1-0.515,4.196,0.321,6.234c1.485,3.625,2.744,7.315,3.226,11.226c1.278,10.38-2.362,20.224-13.445,25.232
		c-1.755,0.793-3.515,1.586-5.315,2.269c-3.255,1.235-5.311,3.493-6.395,6.798c-0.87,2.652-1.844,5.284-2.972,7.836
		c-4.563,10.318-12.91,15.801-23.532,18.552c-7.175,1.858-13.666-0.103-20.031-2.971c-8.369-3.771-13.583-10.411-16.623-18.918
		c-0.665-1.86-1.374-3.705-2.036-5.566c-0.913-2.567-2.687-4.295-5.145-5.377c-2.38-1.047-4.786-2.04-7.131-3.159
		c-10.221-4.877-13.373-14.617-12.598-23.386c0.374-4.226,1.607-8.229,3.222-12.119
		C906.682,505.063,906.803,502.706,905.959,500.176z M1021.222,645.23c-3.662,0.302-7.201-0.46-10.635-1.736
		c-0.891-0.331-1.322-0.85-1.508-1.863c-0.717-3.914-1.681-7.751-4.7-10.672c-1.194-1.155-2.591-2.001-4.011-2.83
		c-12.38-7.224-25.477-12.776-39.211-16.851c-0.715-0.212-1.364-0.294-2.092-0.063c-9.058,2.864-18.046,5.933-26.585,10.128
		c-4.799,2.358-9.461,4.999-14.134,7.604c-4.166,2.323-6.268,6.227-6.868,10.704c-0.42,3.133-2.046,4.174-4.728,4.739
		c-3.38,0.712-6.737,1.352-10.168,0.453c-6.024-1.579-9.199-8.068-6.634-13.675c0.819-1.79,0.622-3.58,0.441-5.402
		c-0.505-5.102,2.313-8.511,7.374-8.299c7.223,0.302,13.919-1.454,20.508-4.176c7.614-3.146,15.317-6.076,22.981-9.102
		c0.565-0.223,1.122-0.466,1.886-0.785c-2.155-1.136-4.143-2.185-6.132-3.232c-7.087-3.733-14.028-7.716-20.779-12.029
		c-3.614-2.309-7.599-3.277-11.855-3.082c-4.172,0.191-7.929-0.637-11.029-3.703c-3.775-3.734-3.834-9.549-2.476-13.231
		c0.574-1.556,1.646-2.752,3.225-3.34c2.745-1.024,4.721-2.856,6.252-5.334c2.704-4.375,6.522-5.782,11.13-4.343
		c2.282,0.713,3.866,2.122,4.691,4.354c0.518,1.402,1.057,2.806,1.435,4.249c1.223,4.658,3.643,8.485,7.176,11.81
		c9.68,9.114,20.616,16.003,33.433,19.777c1.248,0.367,2.392,0.373,3.652,0.002c14.254-4.208,26.197-12.088,36.356-22.805
		c1.653-1.744,2.623-3.911,3.388-6.166c0.651-1.919,1.375-3.818,1.911-5.768c0.978-3.563,3.383-5.386,6.901-5.901
		c3.406-0.499,6.163,0.724,8.312,3.361c0.516,0.634,0.968,1.326,1.397,2.024c1.227,1.998,2.872,3.569,5.064,4.37
		c3.427,1.252,4.539,3.933,4.801,7.216c0.723,9.06-6.46,13.816-12.809,13.414c-5.666-0.359-10.676,1.232-15.422,4.355
		c-7.498,4.934-15.417,9.169-23.415,13.244c-0.41,0.209-0.927,0.28-1.233,0.86c4.355,1.726,8.674,3.446,12.999,5.149
		c5.469,2.154,10.922,4.353,16.424,6.422c4.794,1.803,9.772,2.584,14.912,2.353c4.494-0.202,7.318,1.675,8.164,5.322
		c0.31,1.336,0.209,2.689-0.02,4.031c-0.232,1.362-0.148,2.682,0.39,3.978C1032.927,637.863,1028.885,644.597,1021.222,645.23z"/>
</g>
</svg>
